<svg width="212" height="408" viewBox="0 0 212 408" fill="none" xmlns="http://www.w3.org/2000/svg">
<path d="M205.708 186.173L185.429 181.494C178.162 179.817 173.835 172.587 175.471 165.497L192.183 93.0656C200.515 56.9519 178.137 21.0051 142.154 12.7029L96.6679 2.20781C93.7201 1.52768 90.9035 3.29536 90.2209 6.25383L73.3088 79.5524C72.6262 82.5108 74.3837 85.3339 77.3314 86.014L110.773 93.7299C118.041 95.4068 122.368 102.637 120.732 109.727L74.9856 307.995C73.3026 315.29 66.089 319.642 59.0246 318.012L25.5831 310.296C22.6354 309.616 19.8187 311.384 19.1361 314.342L2.21229 387.692C1.52969 390.65 3.28712 393.473 6.23485 394.154L51.7723 404.66C87.755 412.963 123.62 390.454 131.953 354.34L149.394 278.747C151.077 271.452 158.291 267.1 165.355 268.73L185.634 273.409C188.581 274.089 191.398 272.321 192.081 269.363L209.734 192.85C210.417 189.892 208.706 186.865 205.759 186.185L205.708 186.173Z" fill="#F8D8D8" stroke="#1E1E1E" stroke-width="3" stroke-miterlimit="10"/>
</svg>
