<svg width="261" height="258" viewBox="0 0 261 258" fill="none" xmlns="http://www.w3.org/2000/svg">
<path d="M246.403 135.403L259.089 80.1145C259.544 78.1308 258.309 75.9525 256.184 75.465L226.806 68.7246L233.145 41.0989C233.6 39.1152 232.365 36.9369 230.24 36.4494L175.111 23.8006C173.133 23.3467 170.959 24.588 170.47 26.7187L164.132 54.3444L132.813 47.1585L139.151 19.5328C139.606 17.5491 138.371 15.3708 136.247 14.8833L81.1178 2.2345C79.1397 1.78066 76.9655 3.02197 76.4767 5.15267L70.1382 32.7784L40.7972 26.0463C38.8192 25.5925 36.645 26.8338 36.1561 28.9645L23.4707 84.2526C23.0156 86.2363 24.2509 88.4146 26.3755 88.9021L55.7531 95.6425L48.5464 127.052L19.1688 120.312C17.1908 119.858 15.0166 121.099 14.5277 123.23L1.84233 178.518C1.38717 180.502 2.62252 182.68 4.74709 183.167L34.1247 189.908L27.7862 217.533C27.331 219.517 28.5664 221.696 30.6909 222.183L85.8197 234.832C87.7977 235.286 89.9719 234.044 90.4608 231.914L96.7993 204.288L128.118 211.474L121.78 239.1C121.325 241.083 122.56 243.262 124.685 243.749L179.813 256.398C181.791 256.852 183.966 255.61 184.454 253.48L190.793 225.854L220.17 232.595C222.149 233.048 224.323 231.807 224.812 229.676L237.497 174.388C237.952 172.404 236.717 170.226 234.592 169.739L205.215 162.998L212.421 131.589L241.799 138.329C243.957 138.67 245.985 137.395 246.44 135.411L246.403 135.403ZM142.903 148.547L111.584 141.361L118.791 109.951L150.11 117.137L142.903 148.547Z" fill="#CCF6C5" stroke="#1E1E1E" stroke-width="3" stroke-linejoin="round"/>
</svg>
